{
  "accessors": [
    {
      "bufferView": 2,
      "componentType": 5126,
      "count": 31464,
      "max": [
        288.30999755859375,
        530.2164916992188,
        256.05645751953125
      ],
      "min": [
        -252.25143432617188,
        -469.78350830078125,
        -208.31541442871094
      ],
      "type": "VEC3"
    },
    {
      "bufferView": 2,
      "byteOffset": 377568,
      "componentType": 5126,
      "count": 31464,
      "max": [
        0.9999832510948181,
        0.9999664425849915,
        0.9999980330467224
      ],
      "min": [
        -1.0,
        -0.9997877478599548,
        -0.9999892115592957
      ],
      "type": "VEC3"
    },
    {
      "bufferView": 1,
      "componentType": 5126,
      "count": 31464,
      "max": [
        0.9982575178146362,
        0.9996215105056763
      ],
      "min": [
        0.00038291275268420577,
        0.0008298158645629883
      ],
      "type": "VEC2"
    },
    {
      "bufferView": 0,
      "componentType": 5125,
      "count": 149130,
      "type": "SCALAR"
    }
  ],
  "asset": {
    "extras": {
      "author": "Horton (https://sketchfab.com/Horton)",
      "license": "CC-BY-4.0 (http://creativecommons.org/licenses/by/4.0/)",
      "source": "https://sketchfab.com/3d-models/christmas-elf-9589ccefe735448f924ddbfef36e1d65",
      "title": "Christmas Elf"
    },
    "generator": "Sketchfab-12.67.0",
    "version": "2.0"
  },
  "bufferViews": [
    {
      "buffer": 0,
      "byteLength": 596520,
      "name": "floatBufferViews",
      "target": 34963
    },
    {
      "buffer": 0,
      "byteLength": 251712,
      "byteOffset": 596520,
      "byteStride": 8,
      "name": "floatBufferViews",
      "target": 34962
    },
    {
      "buffer": 0,
      "byteLength": 755136,
      "byteOffset": 848232,
      "byteStride": 12,
      "name": "floatBufferViews",
      "target": 34962
    }
  ],
  "buffers": [
    {
      "byteLength": 1603368,
      "uri": "scene.bin"
    }
  ],
  "images": [
    {
      "uri": "textures/Material0_baseColor.jpeg"
    }
  ],
  "materials": [
    {
      "doubleSided": true,
      "name": "Material0",
      "pbrMetallicRoughness": {
        "baseColorTexture": {
          "index": 0
        },
        "metallicFactor": 0.0
      }
    }
  ],
  "meshes": [
    {
      "name": "Stereo textured mesh_Material0_0",
      "primitives": [
        {
          "attributes": {
            "NORMAL": 1,
            "POSITION": 0,
            "TEXCOORD_0": 2
          },
          "indices": 3,
          "material": 0,
          "mode": 4
        }
      ]
    }
  ],
  "nodes": [
    {
      "children": [
        1
      ],
      "matrix": [
        0.014763408340513706,
        2.6645594524789316e-15,
        0.9998910427093506,
        0.0,
        0.025225594639778137,
        -0.9996817111968994,
        -0.00037245635758176293,
        0.0,
        0.99957275390625,
        0.025228343904018406,
        -0.014758709818124766,
        0.0,
        42.38626480102539,
        -53.474552154541016,
        11.824364662170398,
        1.0
      ],
      "name": "Sketchfab_model"
    },
    {
      "children": [
        2
      ],
      "matrix": [
        1.0,
        0.0,
        0.0,
        0.0,
        0.0,
        -1.0,
        0.0,
        0.0,
        0.0,
        0.0,
        -1.0,
        0.0,
        0.0,
        0.0,
        0.0,
        1.0
      ],
      "name": "sketchfabTemp.obj.fbx"
    },
    {
      "children": [
        3
      ],
      "name": "RootNode"
    },
    {
      "children": [
        4
      ],
      "name": "Stereo textured mesh"
    },
    {
      "mesh": 0,
      "name": "Stereo textured mesh_Material0_0"
    }
  ],
  "samplers": [
    {
      "magFilter": 9729,
      "minFilter": 9987,
      "wrapS": 10497,
      "wrapT": 10497
    }
  ],
  "scene": 0,
  "scenes": [
    {
      "name": "Sketchfab_Scene",
      "nodes": [
        0
      ]
    }
  ],
  "textures": [
    {
      "sampler": 0,
      "source": 0
    }
  ]
}
